<svg width="32" height="32" viewBox="0 0 32 32" fill="none" xmlns="http://www.w3.org/2000/svg">
<rect width="32" height="32" rx="16" fill="#362722"/>
<path d="M11.8462 17.0161C11.846 17.2153 11.8881 17.4127 11.97 17.5968C12.0519 17.7809 12.172 17.9482 12.3235 18.0891C12.475 18.23 12.6548 18.3418 12.8528 18.418C13.0508 18.4942 13.2629 18.5334 13.4772 18.5333H22.3148C22.7432 18.5334 23.1674 18.455 23.5633 18.3026C23.9591 18.1502 24.3187 17.9267 24.6217 17.6451C24.9246 17.3634 25.1649 17.0289 25.3288 16.6609C25.4927 16.2928 25.577 15.8984 25.5769 15.5H13.4772C13.263 15.4999 13.051 15.5391 12.8531 15.6152C12.6552 15.6914 12.4754 15.8031 12.3239 15.9439C12.1725 16.0846 12.0523 16.2518 11.9703 16.4358C11.8883 16.6198 11.8462 16.817 11.8462 17.0161Z" fill="url(#paint0_linear_257_35)"/>
<path d="M12.0489 11.9699C11.7907 11.9701 11.5429 11.8722 11.3602 11.6979C11.1774 11.5236 11.0745 11.2871 11.0742 11.0404V9.14286C11.074 9.11088 11.0627 9.07988 11.042 9.05476C11.0213 9.02964 10.9924 9.01184 10.9599 9.00418C10.9274 8.99652 10.8932 8.99944 10.8626 9.01248C10.8321 9.02552 10.8069 9.04793 10.7912 9.07616C10.3636 9.8741 9.50148 10.8186 8.17904 11.5331C7.67743 11.7918 7.14578 11.9935 6.595 12.1339C4.5104 12.7059 3.94445 14.6347 4.00419 15.4338C6.56733 14.6527 7.8118 16.1669 8.1652 17.8937C8.38765 19.0469 9.02593 20.0891 9.96912 20.8393C10.9123 21.5895 12.1008 22.0002 13.328 22H15.2226C15.6155 22.0002 16.0046 21.9265 16.3677 21.7831C16.7308 21.6396 17.0607 21.4292 17.3386 21.1639C17.6166 20.8986 17.8371 20.5835 17.9877 20.2368C18.1382 19.89 18.2157 19.5183 18.2159 19.1429H13.4129C13.1168 19.1483 12.8225 19.0979 12.5468 18.9946C12.2711 18.8913 12.0194 18.7371 11.806 18.5408C11.5927 18.3446 11.4219 18.1101 11.3034 17.8507C11.1849 17.5914 11.121 17.3123 11.1154 17.0294C11.1098 16.7465 11.1625 16.4653 11.2707 16.2019C11.3788 15.9384 11.5401 15.6979 11.7455 15.4941C11.9509 15.2902 12.1963 15.127 12.4678 15.0138C12.7392 14.9006 13.0312 14.8395 13.3273 14.8342C13.3556 14.8342 13.3846 14.8342 13.4129 14.8342H25.0067C25.8007 14.8339 26.5621 14.5323 27.1234 13.9957C27.6847 13.4591 28 12.7315 28 11.9729L12.0489 11.9699Z" fill="url(#paint1_linear_257_35)"/>
<defs>
<linearGradient id="paint0_linear_257_35" x1="24.9917" y1="25.1243" x2="-9.84494" y2="16.9829" gradientUnits="userSpaceOnUse">
<stop stop-color="#FC883A"/>
<stop offset="0.96" stop-color="#F2542A"/>
</linearGradient>
<linearGradient id="paint1_linear_257_35" x1="24.3653" y1="19.2036" x2="6.86511" y2="9.44404" gradientUnits="userSpaceOnUse">
<stop stop-color="#FC883A"/>
<stop offset="1" stop-color="#F2542A"/>
</linearGradient>
</defs>
</svg>
